{"title":"Sunshine Cleaning (2008) Amy Adams (DVDrip, opt.NORDIC SUBS)","uid":5072012,"size":734455261,"categoryP":"video","categoryS":"movies","magnet":"?xt=urn:btih:3500c894336fe97c9dd8f58bc6f1beeffc98bbc9&amp;dn=Sunshine+Cleaning+%282008%29+Amy+Adams+%28DVDrip%2C+opt.NORDIC+SUBS%29&amp;tr=udp%3A%2F%2Ftracker.openbittorrent.com%3A80&amp;tr=udp%3A%2F%2Fopen.demonii.com%3A1337&amp;tr=udp%3A%2F%2Ftracker.coppersurfer.tk%3A6969&amp;tr=udp%3A%2F%2Fexodus.desync.com%3A6969","seeders":1,"leechers":0,"uploader":"Kuthumi","files":-1,"time":1251488383,"description":" &lt;a href=&quot;http://www.imdb.com/title/tt0862846/&quot; rel=&quot;nofollow&quot; target=&quot;_NEW&quot;&gt;http://www.imdb.com/title/tt0862846/&lt;/a&gt;\n\nWith Emily Blunt, Steve Zahn and Alan Arkin.\n\nOptional subtitles in separate idx/sub files (Work in Windows Media Player etc., see enclosed Note): Danish, Finnish, Icelandic, Norwegian, Swedish. \n\nCharming comedy about two sisters who start a cleaning agency for gory crime scenes.\n\nWidescreen DVDrip XviD 2-pass 720x288, great stereo sound AC3.\nRuns well in both my standalone DivX players.\n\nFormat/Info                      : Audio Video Interleave\nFile size                        : 697 MiB\nDuration                         : 1h 27mn\nOveral bit rate                  : 1114 Kbps\n\nVideo\nFormat                           : MPEG-4 Visual\nFormat profile                   : Streaming Video@L1\nFormat settings, BVOP            : Yes\nFormat settings, QPel            : No\nFormat settings, GMC             : No warppoints\nFormat settings, Matrix          : Default\nMuxing mode                      : Packet Bitstream\nCodec ID                         : XVID\nCodec ID/Hint                    : XviD\nDuration                         : 1h 27mn\nBit rate                         : 976 Kbps\nWidth                            : 720 pixels\nHeight                           : 288 pixels\nDisplay aspect ratio             : 2.500\nFrame rate                       : 25.000 fps\nResolution                       : 8 bits\nColorimetry                      : 4:2:0\nScan type                        : Progressive\nBits/(Pixel*Frame)               : 0.188\nStream size                      : 611 MiB\nWriting library                  : XviD 1.2.0.dev47 (UTC 2006-11-01)\n\nAudio\nFormat                           : MPEG Audio\nFormat version                   : Version 1\nFormat profile                   : Layer 3\nCodec ID                         : 55\nCodec ID/Hint                    : MP3\nDuration                         : 1h 27mn\nBit rate mode                    : Constant\nBit rate                         : 128 Kbps\nMinimum bit rate                 : 128 Kbps\nChannel(s)                       : 2 channels\nSampling rate                    : 48.0 KHz\nResolution                       : 16 bits\nStream size                      : 80.1 MiB\nWriting library                  : LAME3.97 \nEncoding settings                : CBR\n\nSource: PAL retail (note that PAL/NTSC will give no problems for avi files).\nThanks to user vizzer for uploading the DVD.","torrent":{"xt":"urn:btih:3500c894336fe97c9dd8f58bc6f1beeffc98bbc9","amp;dn":"Sunshine+Cleaning+%282008%29+Amy+Adams+%28DVDrip%2C+opt.NORDIC+SUBS%29","amp;tr":["udp%3A%2F%2Ftracker.openbittorrent.com%3A80","udp%3A%2F%2Fopen.demonii.com%3A1337","udp%3A%2F%2Ftracker.coppersurfer.tk%3A6969","udp%3A%2F%2Fexodus.desync.com%3A6969"],"infoHash":"3500c894336fe97c9dd8f58bc6f1beeffc98bbc9","infoHashBuffer":{"type":"Buffer","data":[53,0,200,148,51,111,233,124,157,216,245,139,198,241,190,239,252,152,187,201]},"announce":[],"urlList":[]}}